<svg xmlns="http://www.w3.org/2000/svg" width="136" height="136" fill="none"><path fill="#DDD6FE" d="M64.649 11.333 11.333 38.285v61.911l60.732 24.471h.025v-.013l52.577-30.958V31.794l-60.018-20.46Z"/><path fill="#C4B5FD" d="m124.667 31.794-60.018-20.46-53.316 26.95v61.912l60.732 24.471h.025V62.736l-.012-.005 52.589-30.937Z"/><path fill="#8B5CF6" d="M72.09 62.735v61.931h-.025l-60.732-24.47V38.289l7.144 2.876 53.613 21.57Z"/><path fill="#A78BFA" d="M72.09 62.735v53.426L32.135 100.05a21.82 21.82 0 0 1-13.653-20.23V41.167l53.608 21.57Z"/><path fill="#5B21B6" d="m99.128 23.08-1.072.586-51.882 28.638-.098 19.912-8.216-3.07-5.364-2.023V46.82l54.076-28.004 12.556 4.265Z"/><path fill="#6D28D9" d="M98.116 23.666 46.234 52.304l-.098 19.912-8.216-3.07V49.599l54.1-28.005 6.096 2.072Z"/></svg>